<?xml version="1.0" standalone="no"?>
<!DOCTYPE svg PUBLIC "-//W3C//DTD SVG 20010904//EN"
 "http://www.w3.org/TR/2001/REC-SVG-20010904/DTD/svg10.dtd">
<svg version="1.0" xmlns="http://www.w3.org/2000/svg"
 width="1024.000000pt" height="1024.000000pt" viewBox="0 0 1024.000000 1024.000000"
 preserveAspectRatio="xMidYMid meet">
<metadata>
Created by potrace 1.14, written by Peter Selinger 2001-2017
</metadata>
<g transform="translate(0.000000,1024.000000) scale(0.100000,-0.100000)"
fill="#000000" stroke="none">
<path d="M4886 9440 c-96 -20 -162 -44 -269 -97 -257 -126 -488 -394 -602
-697 -86 -230 -115 -401 -122 -738 -3 -142 -10 -258 -14 -258 -5 0 -15 -10
-23 -22 -11 -17 -16 -71 -21 -208 -23 -685 -127 -1109 -353 -1435 -196 -282
-433 -492 -777 -685 -177 -99 -239 -142 -315 -219 -146 -148 -191 -340 -130
-551 43 -147 190 -330 372 -463 l77 -57 3 -91 c2 -73 0 -93 -13 -105 -8 -8
-20 -14 -26 -14 -17 0 -130 -77 -179 -122 -99 -91 -181 -221 -210 -333 -30
-113 -26 -297 10 -465 40 -184 43 -368 8 -480 -74 -238 -237 -381 -466 -408
-37 -5 -87 -7 -111 -5 -37 4 -45 1 -55 -18 -9 -16 -9 -27 0 -44 9 -17 135
-106 219 -155 11 -6 10 -12 -4 -33 -9 -14 -15 -38 -13 -54 3 -25 6 -28 41 -27
49 2 231 90 317 154 223 166 342 401 357 705 7 141 -4 233 -51 434 -39 165
-47 244 -34 328 15 93 82 166 186 197 l22 7 0 -1236 c0 -1358 -4 -1277 60
-1310 25 -13 113 -15 633 -15 468 0 606 3 616 12 11 10 12 10 7 1 -6 -10 221
-13 1108 -13 816 0 1116 3 1116 11 0 8 4 8 14 0 20 -17 1162 -15 1195 2 13 7
33 24 44 39 20 26 20 43 18 1262 l-1 1236 20 0 c60 0 161 -89 179 -158 30
-110 24 -187 -35 -436 -126 -536 41 -943 476 -1161 52 -26 112 -54 132 -61 36
-13 39 -12 54 12 16 23 15 26 -9 62 l-25 38 97 57 c133 80 169 111 155 134 -9
14 -29 19 -95 24 -172 13 -293 63 -393 163 -157 157 -200 394 -136 746 12 63
24 169 27 235 5 102 3 133 -16 205 -50 200 -157 335 -358 452 l-73 42 0 92 0
93 94 69 c251 187 362 358 381 587 14 171 -28 285 -151 411 -88 91 -142 128
-324 229 -136 75 -278 169 -380 251 -150 120 -337 336 -441 509 -189 313 -299
814 -299 1363 0 158 -9 202 -45 215 -13 5 -15 34 -15 191 0 418 -47 670 -175
931 -74 151 -123 222 -228 331 -236 248 -510 366 -841 363 -75 -1 -154 -8
-210 -19z m407 -90 c52 -10 124 -29 159 -40 97 -33 252 -120 263 -149 4 -11 1
-11 -17 1 -101 66 -234 119 -362 143 -75 14 -82 14 -73 -8 3 -8 27 -17 59 -20
71 -9 209 -59 253 -93 47 -36 37 -42 -17 -11 -95 56 -326 93 -523 84 -121 -5
-267 -36 -352 -73 -62 -28 -70 -29 -53 -9 10 12 84 43 243 100 26 10 47 20 47
22 0 10 -91 -7 -160 -31 -96 -33 -123 -45 -205 -90 l-50 -28 40 36 c74 67 281
153 425 176 89 14 226 10 323 -10z m-7 -191 c217 -30 435 -142 545 -281 98
-123 170 -357 194 -628 11 -126 13 -574 3 -587 -14 -17 -1813 -19 -1824 -2
-13 21 -4 499 12 639 18 158 33 236 68 345 14 44 26 86 26 92 0 16 91 146 134
191 94 101 319 204 502 231 86 13 251 13 340 0z m-1175 -566 c-36 -139 -62
-324 -68 -477 -5 -124 -8 -145 -18 -126 -23 42 -30 0 -30 -170 0 -140 -2 -165
-15 -165 -12 0 -16 18 -18 85 -3 77 13 407 22 455 2 11 7 40 11 65 21 139 115
434 132 416 2 -2 -5 -39 -16 -83z m2063 -63 c14 -41 37 -131 51 -200 24 -112
27 -153 32 -404 5 -234 3 -278 -8 -274 -11 4 -15 38 -17 159 -2 166 -6 189
-24 171 -7 -7 -10 -38 -9 -77 1 -40 -2 -65 -8 -65 -7 0 -11 69 -11 208 0 185
-19 446 -34 471 -4 5 -9 31 -12 58 -7 66 8 47 40 -47z m50 -1248 c20 -519 99
-869 276 -1222 74 -147 109 -203 201 -326 l69 -90 -2 -2075 c-1 -1141 -4
-2159 -8 -2264 l-5 -190 -70 0 -70 0 -2 95 c-1 52 -4 560 -7 1129 -5 819 -3
1037 6 1049 9 12 10 14 1 9 -9 -6 -11 201 -8 922 4 778 2 931 -9 940 -11 9
-18 8 -30 -4 -15 -15 -16 -190 -17 -1963 0 -1071 -2 -1999 -3 -2062 l-2 -115
-56 0 c-32 1 -59 3 -62 6 -3 3 -7 260 -9 573 -3 469 -6 569 -18 576 -38 24
-39 7 -41 -584 l-3 -571 -63 0 -63 0 1 574 1 574 25 30 26 31 -7 706 c-8 773
-4 736 -67 742 -37 4 -34 -34 -36 501 l-2 378 -22 -3 -23 -3 -5 -435 -5 -435
-82 -3 -83 -3 -2 318 c-3 310 -3 318 -23 318 -20 0 -20 -8 -23 -318 l-2 -318
-58 3 -57 3 -3 245 c-2 135 -7 249 -12 254 -5 5 -16 6 -24 3 -14 -6 -16 -39
-16 -257 l0 -250 -90 0 -90 0 0 215 c0 187 -2 216 -16 222 -31 12 -35 -13 -34
-220 0 -179 -2 -205 -16 -211 -8 -3 -90 -6 -180 -6 l-164 0 0 119 c0 132 -4
151 -30 151 -27 0 -32 -24 -29 -150 l3 -115 -92 -3 -92 -3 0 118 c0 65 -4 124
-9 132 -10 16 -41 8 -42 -11 0 -7 -2 -31 -4 -53 -1 -22 -3 -73 -4 -113 l-1
-73 -52 3 -53 3 -3 215 c-2 118 -7 219 -12 224 -5 5 -16 6 -24 3 -14 -6 -16
-36 -16 -227 l0 -220 -90 0 -90 0 0 85 c0 84 0 85 -25 85 -24 0 -24 -2 -27
-82 l-3 -83 -57 -3 -58 -3 0 334 c0 295 -2 336 -16 348 -14 11 -18 10 -30 -6
-11 -15 -14 -82 -14 -347 l0 -329 -82 3 -83 3 3 431 c3 393 2 432 -13 444 -15
12 -19 12 -31 -5 -11 -15 -14 -97 -14 -447 l0 -428 -34 0 c-18 0 -38 -6 -44
-13 -7 -8 -11 -249 -13 -735 l-2 -723 28 -29 28 -29 -6 -478 c-4 -263 -7 -518
-7 -566 l0 -88 -62 3 -63 3 -3 528 c-2 521 -2 527 -22 527 -12 0 -23 -6 -25
-12 -3 -7 -8 -245 -12 -528 l-8 -515 -62 -3 -63 -3 -2 438 c-1 241 -2 1172 -3
2070 0 1261 -3 1635 -12 1644 -10 10 -16 9 -28 -1 -13 -11 -15 -210 -16 -1899
0 -1037 -1 -1902 -3 -1921 -1 -19 -3 -102 -4 -183 l-2 -148 -67 3 -68 3 -3 35
c-2 19 -5 1038 -7 2264 l-4 2228 53 72 c29 39 65 92 80 119 16 26 31 47 35 47
4 0 15 20 25 45 10 24 27 52 37 61 10 9 26 37 36 63 16 41 40 91 71 146 65
113 157 494 188 771 8 77 17 211 20 299 7 211 6 207 52 203 l37 -3 3 -87 c2
-62 7 -90 18 -99 24 -20 34 2 36 82 2 109 2 109 59 109 l49 0 0 -290 c0 -255
2 -291 16 -297 33 -12 39 14 40 170 0 84 1 212 2 285 l2 132 60 0 60 0 1 -62
c3 -390 3 -393 23 -396 10 -2 22 2 27 10 5 7 9 111 9 231 l0 217 60 0 59 0 3
-97 c3 -90 5 -98 23 -98 18 0 20 8 25 95 l5 95 72 3 72 3 3 -122 c3 -104 6
-123 21 -133 29 -18 37 9 37 137 l0 117 60 0 60 0 0 -154 c0 -124 3 -156 15
-166 12 -10 18 -10 30 0 12 10 15 42 15 167 l0 154 58 -3 57 -3 5 -150 c5
-142 6 -150 25 -150 19 0 20 8 25 150 l5 150 63 3 62 3 0 -126 c0 -105 3 -127
16 -132 27 -10 32 9 36 132 l3 120 73 3 72 3 0 -124 c0 -100 3 -127 15 -137
28 -24 37 4 40 131 l3 124 56 3 56 3 1 -103 c0 -57 1 -153 1 -215 -1 -116 8
-143 43 -129 13 5 15 38 15 226 l0 220 65 0 65 0 0 -294 c0 -236 3 -295 13
-299 34 -13 37 6 39 298 l3 290 50 0 49 0 -1 -105 c-1 -113 7 -136 38 -119 17
9 19 22 19 119 l0 109 33 3 c17 2 37 0 43 -4 7 -5 14 -75 18 -186z m-2364
-552 c0 -5 -5 -10 -11 -10 -5 0 -7 5 -4 10 3 6 8 10 11 10 2 0 4 -4 4 -10z m0
-110 c0 -5 -4 -10 -10 -10 -5 0 -10 5 -10 10 0 6 5 10 10 10 6 0 10 -4 10 -10z
m-300 -696 c0 -8 -5 -12 -10 -9 -6 4 -8 11 -5 16 9 14 15 11 15 -7z m-154
-2409 c-4 -1687 -8 -2224 -15 -2383 -1 -21 -5 -22 -58 -20 -32 2 -61 7 -64 12
-4 5 -8 133 -9 285 -2 152 -3 317 -4 366 -1 69 3 93 14 102 13 11 13 12 -2 13
-15 0 -17 75 -18 1072 0 682 -4 1076 -10 1082 -7 7 -15 5 -24 -4 -12 -13 -15
-202 -20 -1200 -7 -1362 -6 -1346 -23 -1342 -23 4 -28 4 -53 3 -24 -2 -24 -2
-6 -16 11 -9 30 -12 48 -8 26 5 29 3 26 -13 -2 -11 -10 -17 -19 -15 -21 6 -42
5 -60 -3 -13 -6 -16 4 -17 71 -1 43 -5 200 -8 348 -3 149 -8 979 -11 1845 l-5
1575 64 47 63 46 5 -276 c5 -269 6 -277 25 -277 19 0 20 8 25 305 l5 305 75
74 75 73 3 -33 c2 -19 1 -934 -2 -2034z m3569 -70 c-4 -1094 -8 -2039 -10
-2100 -3 -60 -4 -122 -5 -137 0 -27 -2 -28 -51 -28 -43 0 -50 -3 -47 -18 4
-23 68 -31 68 -8 0 9 6 16 13 16 8 0 13 -11 12 -28 0 -26 -2 -27 -55 -27 l-55
0 -6 65 c-3 36 -1 70 3 77 6 7 5 20 -1 31 -7 13 -10 710 -11 2158 l0 2139 76
-75 76 -75 -7 -1990z m128 1888 l58 -47 -5 -1581 c-4 -1491 -11 -2114 -21
-2143 -2 -7 -22 -12 -45 -12 -27 0 -39 -4 -34 -11 3 -6 24 -9 45 -7 l39 4 0
-79 c0 -72 -2 -78 -17 -72 -10 4 -33 8 -52 9 -19 0 -36 7 -38 14 -5 12 11 16
61 12 20 -1 27 2 24 12 -3 7 -18 14 -34 14 -56 2 -56 2 -44 25 8 13 15 17 23
11 7 -4 26 -5 42 -2 35 8 19 18 -35 22 -33 3 -35 5 -33 38 1 19 2 38 2 41 1 4
21 4 46 1 30 -3 45 -1 45 7 0 10 -13 13 -67 14 -16 1 -23 7 -24 21 -1 12 -3
56 -5 99 l-3 78 39 -3 c22 -2 38 1 37 7 -1 6 -19 10 -39 9 l-38 -1 0 1784 c0
980 3 1783 7 1783 5 0 34 -21 66 -47z m-4093 -133 c0 -25 -4 -30 -23 -30 -36
0 -38 10 -9 36 15 13 28 24 30 24 1 0 2 -13 2 -30z m-267 -5 c1 -6 -19 -21
-44 -35 -119 -66 -186 -141 -71 -80 63 33 82 37 82 17 0 -8 -22 -24 -49 -36
-27 -13 -61 -34 -77 -47 -26 -20 -27 -23 -9 -24 11 0 44 11 74 25 30 14 57 23
60 20 9 -10 -32 -37 -159 -104 -83 -44 -136 -80 -176 -120 l-56 -56 5 41 c14
121 153 283 312 366 89 47 105 52 108 33z m4522 5 c4 -6 2 -17 -5 -25 -9 -11
-6 -16 11 -26 16 -8 24 -9 27 -1 5 15 32 3 32 -14 0 -9 -11 -13 -35 -12 -19 1
-38 -2 -42 -6 -13 -12 21 -26 49 -20 l26 5 1 -1231 0 -1232 -39 5 c-30 3 -40
1 -40 -10 0 -11 10 -14 37 -11 30 2 38 -1 41 -16 3 -16 -1 -18 -37 -14 -29 2
-41 0 -41 -9 0 -8 13 -13 35 -13 25 0 35 -4 35 -15 0 -9 -6 -15 -12 -14 -30 4
-58 -2 -58 -11 0 -5 16 -10 35 -10 29 0 35 -4 35 -21 0 -18 -5 -21 -35 -17
-23 3 -35 0 -35 -8 0 -7 16 -14 37 -16 52 -4 56 -28 4 -28 -23 0 -41 -4 -41
-10 0 -5 16 -10 35 -10 24 0 35 -5 35 -15 0 -10 -11 -15 -35 -15 -19 0 -35 -4
-35 -10 0 -5 15 -10 34 -10 32 0 55 -14 43 -27 -3 -3 -22 -5 -41 -6 -47 -1
-41 -21 8 -25 48 -4 42 -27 -7 -27 -20 0 -37 -4 -37 -10 0 -10 4 -12 45 -14
41 -2 32 -31 -10 -31 -19 0 -35 -4 -35 -10 0 -5 13 -10 29 -10 16 0 34 -7 41
-15 14 -16 10 -18 -36 -15 -32 1 -60 -19 -30 -21 9 -1 21 -3 26 -4 6 -1 17 -3
25 -4 8 0 15 -7 15 -14 0 -9 -11 -12 -35 -9 -19 2 -35 0 -35 -6 0 -5 16 -13
35 -16 52 -10 45 -32 -7 -28 -30 3 -40 1 -33 -7 6 -6 25 -11 43 -13 19 -1 32
-8 32 -16 0 -9 -11 -13 -35 -11 -19 2 -35 -1 -35 -6 0 -6 15 -11 35 -13 45 -4
48 -30 3 -28 -45 1 -47 -18 -3 -22 47 -4 49 -33 3 -30 -18 1 -38 0 -45 -3 -9
-3 -13 83 -18 361 -9 608 -8 2914 2 2924 10 9 31 7 38 -4z m374 -65 c103 -61
198 -152 236 -225 24 -48 49 -129 42 -137 -3 -2 -30 18 -61 45 -31 27 -117 82
-191 122 -74 39 -138 76 -141 81 -10 16 26 9 74 -15 67 -34 92 -40 92 -24 0
15 -17 26 -100 69 -33 16 -62 34 -65 39 -12 20 14 17 68 -7 39 -18 61 -23 68
-16 10 10 -52 56 -113 84 -29 12 -38 39 -15 39 7 0 55 -25 106 -55z m-4627
-47 c4 -83 0 -2874 -4 -2928 -3 -33 -5 -35 -45 -38 -24 -2 -43 -8 -43 -13 0
-6 18 -8 46 -5 39 4 45 2 42 -12 -3 -13 -12 -16 -46 -14 -32 3 -42 0 -42 -11
0 -11 10 -13 46 -9 41 4 46 3 42 -14 -3 -15 -11 -18 -46 -16 -34 3 -42 0 -42
-14 0 -14 6 -16 40 -10 l40 6 0 -45 0 -45 -40 0 c-23 0 -40 -5 -40 -11 0 -8
14 -10 40 -6 35 4 40 2 40 -14 0 -16 -7 -19 -40 -19 -30 0 -40 -4 -40 -16 0
-14 7 -16 40 -11 34 4 40 2 40 -14 0 -15 -7 -18 -37 -17 -20 1 -39 -4 -41 -10
-2 -7 -7 -12 -10 -12 -7 0 -11 352 -11 1000 0 184 -1 531 -2 770 -1 239 -1
473 -1 520 0 47 1 307 1 578 l1 493 40 -3 c22 -1 43 1 46 5 17 17 23 3 26 -65z
m-302 -468 c0 -163 -4 -290 -9 -290 -16 0 -102 77 -148 132 -59 69 -113 184
-113 237 0 57 41 98 160 161 52 27 98 50 103 50 4 0 7 -130 7 -290z m4900 251
c153 -75 180 -101 180 -175 0 -82 -85 -226 -188 -317 -89 -78 -82 -99 -82 236
0 162 2 295 5 295 2 0 41 -18 85 -39z m-4810 -1231 c0 -5 -4 -10 -10 -10 -5 0
-10 5 -10 10 0 6 5 10 10 10 6 0 10 -4 10 -10z m1260 -161 c0 -72 3 -89 15
-89 11 0 15 11 16 38 1 55 10 146 14 150 2 2 8 1 14 -3 7 -3 11 -43 11 -96 0
-82 1 -89 20 -89 22 0 26 20 8 38 -9 9 -9 15 0 24 7 7 12 36 12 65 0 40 4 53
15 53 12 0 15 -14 15 -65 0 -58 2 -65 20 -65 18 0 20 7 20 65 0 58 2 65 20 65
19 0 20 -7 20 -177 0 -98 1 -412 2 -698 3 -474 2 -520 -13 -517 -9 1 -52 26
-95 55 -44 29 -96 62 -116 74 -33 19 -38 27 -38 58 0 22 4 34 10 30 6 -3 10
-1 10 4 0 6 -4 11 -9 11 -5 0 -7 93 -5 218 1 119 4 379 5 577 0 198 3 363 6
368 14 23 23 -15 23 -94z m1820 84 c3 -3 4 -325 3 -716 -3 -797 -6 -757 66
-757 36 0 39 -2 45 -35 4 -20 4 -40 1 -45 -8 -13 13 -90 25 -90 26 0 40 47 40
131 l0 87 50 37 c28 21 54 34 58 30 7 -7 11 -813 4 -993 l-3 -102 -192 2 -192
3 -3 1233 -2 1233 47 -7 c27 -3 50 -9 53 -11z m282 -4 c17 11 23 10 36 -3 11
-11 12 -16 4 -16 -7 0 -12 -7 -12 -15 0 -8 5 -15 11 -15 8 0 7 -5 -2 -16 -10
-13 -10 -17 2 -25 12 -8 12 -10 -1 -19 -13 -9 -13 -11 -1 -19 12 -7 12 -13 3
-24 -7 -7 -9 -16 -6 -20 7 -6 10 -1044 3 -1051 -2 -2 -35 -25 -73 -51 -38 -26
-91 -65 -118 -86 -28 -21 -54 -37 -59 -33 -10 6 -13 1404 -3 1404 3 0 14 -5
25 -10 13 -7 19 -7 19 0 0 14 27 13 33 -2 3 -10 8 -10 21 1 14 12 19 12 26 2
4 -7 5 -22 3 -32 -4 -13 0 -19 12 -19 12 0 16 6 12 19 -2 10 0 26 6 36 9 18
10 18 24 -1 12 -16 16 -17 35 -5z m-1716 -56 c5 -47 0 -2359 -6 -2391 0 -2
-24 -2 -52 0 -43 2 -55 7 -64 26 -6 12 -14 25 -17 29 -10 10 -37 -18 -37 -38
0 -17 -9 -19 -105 -19 l-105 0 0 545 c0 300 3 545 7 545 4 0 31 -14 60 -32
l53 -32 0 -132 c0 -109 3 -134 16 -145 31 -25 44 14 44 128 0 100 1 103 23
103 41 0 64 12 76 37 8 18 9 210 4 717 -3 381 -3 701 0 710 5 11 19 16 51 16
l44 0 8 -67z m158 -50 c3 -65 4 -244 1 -398 -3 -154 -5 -655 -5 -1112 l0 -833
-50 0 -50 0 0 1230 1 1230 48 0 48 0 7 -117z m126 77 c0 -22 5 -40 10 -40 6 0
10 18 10 40 l0 40 44 0 44 0 4 -42 c4 -37 4 -756 -1 -2105 l-1 -313 -90 0 -90
0 0 1230 0 1230 35 0 c34 0 35 -1 35 -40z m284 -57 c6 -69 12 -93 22 -93 10 0
14 17 16 68 1 37 2 74 4 82 1 8 2 21 3 28 1 8 19 12 56 12 l55 0 0 -1231 0
-1230 -52 3 -53 3 0 578 c0 497 -2 579 -15 587 -39 24 -40 11 -40 -591 l0
-579 -55 0 -55 0 0 1231 0 1230 53 -3 52 -3 9 -92z m403 -170 c-4 -148 -6
-701 -7 -1231 l0 -963 -92 3 -93 3 -2 1228 -2 1227 101 0 100 0 -5 -267z m82
182 c0 -44 -4 -73 -10 -70 -5 4 -9 40 -9 81 0 46 4 73 10 69 5 -3 9 -39 9 -80z
m63 -47 c3 -110 6 -133 18 -133 18 0 17 -3 19 148 1 97 4 117 16 117 15 0 16
-1 19 -182 1 -70 6 -84 30 -75 11 5 14 30 14 129 0 97 3 123 13 123 11 0 14
-29 16 -135 2 -74 5 -178 8 -230 4 -52 9 -544 12 -1092 l5 -998 -51 0 -51 0 0
43 c0 23 -4 49 -10 57 -7 12 -12 12 -29 -4 -11 -10 -20 -21 -19 -25 0 -3 0
-21 -1 -38 l-1 -33 -56 0 -57 0 7 993 c4 545 9 1046 11 1112 2 66 4 135 4 153
1 40 21 43 21 2 0 -20 5 -30 15 -30 12 0 15 19 15 115 0 95 3 115 15 115 12 0
15 -24 17 -132z m-3012 84 c0 -4 -15 -23 -34 -41 -46 -44 -83 -132 -91 -211
-8 -77 15 -263 48 -397 16 -63 20 -93 12 -93 -6 0 -19 32 -29 70 -15 55 -22
70 -37 70 -23 0 -24 -15 -2 -94 13 -46 17 -102 17 -231 0 -154 -3 -178 -26
-252 -60 -192 -185 -341 -353 -419 -66 -31 -149 -48 -172 -36 -14 8 -9 12 27
21 239 61 407 234 470 485 25 100 27 311 4 436 -58 319 -58 423 2 541 41 81
164 195 164 151z m5224 -47 c120 -126 139 -269 82 -610 -62 -360 -15 -590 154
-769 92 -96 191 -153 313 -180 29 -7 36 -21 13 -29 -24 -9 -151 29 -213 64
-32 18 -93 67 -136 110 -63 62 -85 93 -118 164 -60 129 -83 248 -76 405 4 69
13 151 22 183 19 73 20 117 1 117 -8 0 -18 -22 -25 -61 -17 -86 -29 -115 -42
-102 -8 8 -1 50 22 139 30 116 33 144 34 274 0 137 -1 148 -27 202 -15 32 -38
73 -52 91 -30 39 -32 47 -11 47 9 0 35 -20 59 -45z m-4964 -335 c0 -5 -5 -10
-11 -10 -5 0 -7 5 -4 10 3 6 8 10 11 10 2 0 4 -4 4 -10z m4501 -1245 c4 3 10
1 13 -4 9 -15 -15 -25 -56 -26 -28 0 -38 4 -38 16 0 24 9 28 42 18 17 -4 34
-6 39 -4z m19 -52 c0 -22 -18 -33 -56 -33 -35 0 -44 3 -44 18 0 14 9 17 50 17
28 0 50 -1 50 -2z m-39 -53 c19 0 29 -5 29 -15 0 -11 -12 -15 -42 -15 -38 -1
-41 -2 -25 -14 9 -7 28 -11 42 -8 18 3 25 0 25 -12 0 -12 -10 -16 -45 -16
l-45 0 0 46 c0 38 3 45 16 40 9 -3 29 -6 45 -6z m-4291 -15 c0 -11 -11 -15
-40 -15 -22 0 -40 -4 -40 -10 0 -5 18 -10 40 -10 53 0 56 -27 3 -32 -20 -2
-38 -8 -40 -14 -3 -8 9 -11 37 -8 31 3 40 0 40 -11 0 -10 -10 -15 -29 -15 -16
0 -37 -3 -47 -7 -11 -4 -15 -3 -11 4 4 6 3 23 -3 37 -6 18 -6 26 1 26 6 0 8 7
5 16 -13 34 3 54 45 54 28 0 39 -4 39 -15z m4290 -93 c20 3 30 0 30 -9 0 -13
-14 -16 -62 -13 -22 1 -27 -2 -22 -14 4 -11 19 -16 45 -16 49 0 51 -18 2 -22
-53 -4 -56 -28 -3 -28 48 0 52 -24 4 -26 -45 -2 -47 -3 -34 -19 8 -9 22 -12
41 -8 22 4 29 2 29 -11 0 -12 -10 -16 -40 -16 -29 0 -40 -4 -40 -15 0 -11 11
-15 40 -15 22 0 40 -4 40 -10 0 -5 -20 -10 -45 -10 -51 0 -45 -15 -47 130 0
122 0 124 17 110 8 -7 28 -10 45 -8z m-4290 -58 c3 -5 -14 -10 -37 -12 -24 -2
-43 1 -43 7 0 17 71 22 80 5z m7 -56 c-3 -12 -72 -20 -90 -11 -19 10 8 23 49
23 32 0 44 -4 41 -12z m0 -55 c0 -9 -15 -13 -44 -13 -29 0 -43 4 -43 13 0 10
14 14 43 13 29 0 44 -4 44 -13z m-2 -53 c4 -6 -12 -10 -39 -10 -25 0 -46 5
-46 10 0 6 18 10 39 10 22 0 43 -4 46 -10z m183 -48 c-4 -19 -98 -26 -98 -7 0
18 5 20 55 21 36 1 45 -2 43 -14z m4132 -15 c0 -5 -17 -6 -37 -3 -21 3 -41 5
-45 6 -5 0 -8 6 -8 14 0 11 9 11 45 3 25 -6 45 -14 45 -20z m-4315 13 c4 -6
-12 -10 -39 -10 -25 0 -46 5 -46 10 0 6 18 10 39 10 22 0 43 -4 46 -10z m185
-57 c0 -11 -7 -14 -27 -10 -15 3 -35 1 -45 -4 -19 -10 -33 4 -25 24 7 19 97 9
97 -10z m4091 7 c54 0 49 -17 -6 -22 -42 -3 -45 -2 -44 22 0 14 3 19 6 13 2
-8 22 -13 44 -13z m-4278 -6 c1 -5 -17 -10 -40 -12 -33 -2 -43 0 -43 12 0 11
10 14 40 12 22 -2 41 -7 43 -12z m4137 2 c0 -9 -15 -15 -46 -18 -36 -3 -48 0
-55 14 -9 16 -4 18 46 18 40 0 55 -4 55 -14z m-4159 -46 c16 0 29 -4 29 -10 0
-12 -87 -13 -94 -1 -8 12 6 22 22 16 7 -3 27 -5 43 -5z m209 -5 c0 -8 -16 -14
-39 -17 -47 -4 -61 -1 -61 16 0 8 18 12 50 13 34 0 50 -3 50 -12z m3950 -2 c0
-9 -16 -13 -50 -13 -36 0 -50 4 -50 14 0 10 13 14 50 13 33 -1 50 -6 50 -14z
m151 7 c46 0 34 -18 -16 -22 -39 -3 -45 0 -45 15 0 13 5 17 16 13 9 -3 29 -6
45 -6z m-4128 -51 c16 1 27 -4 27 -12 0 -13 -82 -18 -95 -5 -12 12 6 30 24 22
9 -4 28 -6 44 -5z m-163 -9 c0 -12 -65 -24 -79 -15 -23 13 -9 22 34 23 25 1
45 -3 45 -8z m4130 -6 c0 -7 -12 -12 -27 -12 -16 0 -34 -1 -42 -3 -8 -2 -16 3
-18 13 -3 13 4 16 41 16 30 -1 46 -6 46 -14z m188 4 c-4 -11 -20 -13 -73 -9
-8 1 -15 6 -15 11 0 6 21 10 46 10 31 0 44 -4 42 -12z m-4128 -54 c0 -12 -10
-14 -47 -12 -66 4 -70 28 -4 28 39 0 51 -4 51 -16z m3940 1 c0 -10 -12 -13
-42 -12 -59 3 -62 25 -4 25 32 0 46 -4 46 -13z m180 6 c13 -1 13 -3 0 -10 -8
-5 -26 -7 -40 -6 -14 2 -28 4 -32 4 -5 1 -8 5 -8 10 0 8 14 8 80 2z m-4310
-12 c0 -6 -9 -9 -20 -6 -11 3 -20 2 -20 -3 0 -4 -11 -5 -25 -2 -41 7 -28 22
20 22 26 0 45 -5 45 -11z m4083 -53 c6 -8 10 -7 14 2 7 17 33 15 33 -3 0 -15
-5 -17 -35 -17 -46 0 -55 3 -55 22 0 14 5 18 18 13 9 -4 21 -11 25 -17z m203
8 c32 -8 30 -20 -3 -27 -19 -4 -32 -1 -40 11 -18 22 -16 35 3 28 9 -3 27 -9
40 -12z m-4286 -10 c0 -10 -13 -14 -45 -14 -26 0 -45 5 -45 11 0 6 6 9 13 6 8
-3 19 -2 25 2 21 13 52 10 52 -5z m190 1 c0 -10 -10 -15 -29 -15 -16 0 -36 -3
-44 -6 -9 -3 -16 3 -20 15 -5 19 -1 21 44 21 37 0 49 -4 49 -15z m4260 -15 c0
-5 -4 -10 -10 -10 -5 0 -10 5 -10 10 0 6 5 10 10 10 6 0 10 -4 10 -10z m-900
-90 c0 -5 -4 -10 -10 -10 -5 0 -10 5 -10 10 0 6 5 10 10 10 6 0 10 -4 10 -10z"/>
<path d="M4970 6811 c-186 -28 -368 -114 -501 -236 -68 -63 -163 -174 -201
-235 -109 -174 -147 -334 -149 -622 0 -125 -4 -178 -12 -182 -9 -3 -9 -7 1
-13 13 -10 15 -17 28 -103 8 -58 10 -67 14 -75 1 -3 4 -9 5 -15 1 -5 3 -11 4
-12 2 -2 4 -15 6 -30 3 -20 -1 -28 -12 -28 -12 0 -13 -3 -3 -14 6 -8 17 -13
25 -10 16 7 32 -36 17 -45 -6 -4 -10 -20 -8 -36 2 -17 4 -36 5 -43 1 -10 4
-10 16 2 19 19 19 26 -2 42 -15 11 -15 13 -3 14 16 0 35 -24 50 -65 7 -19 6
-23 -6 -18 -11 4 -14 -2 -12 -27 3 -41 12 -45 28 -15 19 35 40 15 33 -29 -6
-37 10 -55 31 -37 10 9 15 8 19 -3 8 -20 -3 -56 -17 -56 -6 0 -3 -5 7 -11 21
-12 40 -2 33 17 -3 8 1 14 9 14 23 0 27 -18 9 -45 -9 -14 -13 -25 -8 -24 5 1
17 1 28 0 15 -1 16 -4 6 -16 -19 -23 -2 -39 21 -19 15 14 20 14 32 3 7 -8 16
-22 20 -32 4 -11 16 -21 27 -24 11 -3 20 -11 20 -19 0 -7 11 -16 24 -20 14 -3
23 -12 22 -22 -1 -12 7 -17 24 -17 15 0 24 -5 22 -13 -1 -7 14 -20 33 -28 19
-8 35 -19 35 -24 0 -6 9 -10 20 -10 15 0 20 -7 20 -29 0 -35 13 -46 30 -26 18
22 29 19 36 -10 6 -25 24 -35 24 -13 0 6 8 4 19 -6 12 -11 21 -14 26 -7 3 6
-1 11 -11 11 -14 0 -14 3 -4 15 12 14 15 13 32 -5 22 -24 34 -25 42 -5 5 13 8
13 24 -3 38 -38 160 -132 171 -132 7 0 33 19 59 43 75 69 113 97 128 97 22 0
16 -27 -7 -33 -12 -3 -19 -11 -17 -18 7 -21 27 -22 35 -2 4 10 15 27 25 37 10
11 18 23 18 28 0 13 28 9 33 -4 5 -18 59 11 65 35 2 9 13 17 23 17 10 0 20 4
23 9 3 5 15 7 25 4 15 -4 20 1 23 19 2 17 9 23 28 23 18 0 24 5 22 18 -2 12 4
17 22 17 14 0 28 5 31 10 3 6 14 10 24 10 14 0 17 6 13 25 -3 20 0 25 16 25
11 0 19 -6 18 -12 0 -7 4 -13 9 -13 6 0 9 7 8 16 -1 9 11 29 27 44 29 27 30
28 30 7 0 -15 5 -20 15 -16 20 8 19 30 -2 39 -17 6 -17 7 0 16 9 6 17 16 17
23 0 8 7 19 15 26 12 10 15 10 15 -4 0 -9 4 -16 9 -16 17 0 23 20 11 35 -16
20 16 73 33 56 14 -14 37 -14 37 -1 0 6 -7 10 -15 10 -8 0 -15 9 -15 19 0 10
7 21 15 25 8 3 15 14 15 24 0 10 12 29 26 43 17 16 24 31 21 46 -2 13 2 24 9
27 8 3 14 12 14 21 0 8 5 15 10 15 6 0 10 9 10 20 0 13 7 20 20 20 11 0 20 7
20 16 0 8 -4 12 -10 9 -6 -4 -10 6 -10 23 0 23 5 31 25 36 27 7 34 26 10 26
-10 0 -15 11 -15 35 0 24 5 35 14 35 24 0 27 16 6 40 -23 27 -25 40 -6 40 7 0
19 7 26 15 9 11 9 15 1 15 -7 0 -11 14 -11 33 4 298 -9 450 -45 547 -7 19 -22
60 -34 90 -102 266 -399 518 -690 586 -76 17 -293 26 -371 15z m375 -96 c164
-44 289 -119 421 -249 132 -132 208 -272 248 -459 50 -234 20 -434 -97 -645
-124 -227 -306 -371 -564 -448 -77 -23 -106 -27 -233 -27 -162 -1 -229 12
-362 69 -112 48 -182 96 -274 188 -127 127 -220 286 -260 446 -28 111 -26 354
4 465 91 337 375 606 707 671 92 18 327 12 410 -11z"/>
<path d="M5006 6680 c-186 -29 -346 -110 -482 -245 -193 -189 -269 -372 -268
-640 1 -72 7 -150 17 -195 33 -148 162 -363 273 -455 118 -97 174 -128 317
-177 77 -26 112 -32 214 -36 167 -6 281 18 428 91 409 202 587 699 404 1127
-86 204 -237 358 -444 456 -140 66 -322 95 -459 74z m71 -182 c-3 -13 -16 -56
-29 -96 l-23 -74 33 -26 32 -27 0 -180 0 -180 -34 -27 c-42 -33 -52 -73 -32
-121 19 -46 55 -69 102 -65 34 3 41 -2 128 -96 85 -91 93 -98 114 -87 38 20
26 49 -63 143 -110 117 -111 130 -24 224 34 36 100 101 147 143 48 43 93 85
100 94 18 21 11 61 -11 65 -19 4 -57 -26 -227 -182 -58 -53 -113 -96 -122 -96
-17 0 -18 16 -18 189 l0 190 30 18 c17 9 30 20 30 23 0 4 -13 43 -30 88 -16
46 -30 87 -30 92 0 37 280 -42 296 -83 3 -8 -13 -41 -36 -73 -46 -66 -49 -97
-8 -102 24 -3 31 4 68 72 l42 76 37 -29 c67 -53 174 -184 160 -195 -2 -2 -31
-18 -64 -35 -66 -35 -86 -56 -78 -77 7 -19 41 -18 78 3 17 9 46 24 65 35 l34
18 17 -32 c18 -36 44 -136 55 -210 l6 -48 -83 0 c-95 0 -112 -7 -107 -41 3
-23 7 -24 96 -27 l94 -3 -7 -52 c-9 -71 -56 -208 -76 -220 -12 -8 -31 -1 -78
27 -67 41 -104 44 -109 10 -3 -18 12 -31 72 -69 l76 -47 -32 -44 c-33 -47
-155 -154 -174 -154 -6 0 -26 29 -44 65 -35 70 -61 88 -89 60 -15 -15 -13 -21
22 -85 20 -38 37 -74 37 -79 0 -13 -152 -60 -219 -68 l-51 -6 0 77 c0 81 -11
116 -36 116 -22 0 -31 -38 -27 -116 3 -40 0 -74 -5 -78 -12 -7 -177 28 -230
49 -23 10 -42 22 -42 27 0 5 16 37 35 69 38 65 41 79 23 97 -28 28 -48 13 -85
-62 -34 -69 -38 -74 -57 -64 -42 22 -109 84 -152 139 l-44 57 64 36 c72 40 89
57 84 83 -6 31 -46 27 -108 -11 -32 -20 -65 -36 -73 -36 -25 0 -77 171 -77
251 0 28 3 30 33 29 95 -5 136 0 147 19 8 15 6 24 -7 36 -14 14 -30 16 -95 12
-42 -3 -80 -2 -83 2 -12 21 53 273 75 286 4 2 24 -7 44 -20 21 -14 54 -32 74
-40 32 -14 37 -14 51 0 23 22 6 44 -65 82 -32 18 -63 34 -68 36 -28 10 153
217 191 217 6 0 31 -31 54 -70 46 -73 63 -87 85 -69 20 17 17 36 -11 73 -14
18 -25 37 -25 42 0 5 -9 20 -20 34 -11 14 -20 28 -20 32 0 11 109 49 200 68
109 24 103 24 97 -2z m79 -672 c3 -13 1 -34 -6 -45 -20 -37 -70 -20 -70 24 0
47 65 65 76 21z"/>
<path d="M3626 5464 c-3 -9 -6 -31 -6 -50 0 -55 44 -60 55 -5 9 49 -33 97 -49
55z"/>
<path d="M6556 5437 c-8 -43 1 -67 25 -67 37 0 40 93 3 98 -17 2 -23 -3 -28
-31z"/>
<path d="M6065 5231 c-3 -5 -1 -12 5 -16 5 -3 10 1 10 9 0 18 -6 21 -15 7z"/>
<path d="M6015 5163 c-7 -19 9 -38 24 -29 16 10 14 33 -3 39 -8 3 -17 -1 -21
-10z"/>
<path d="M5964 5079 c-3 -6 0 -18 8 -26 14 -13 16 -12 21 6 5 21 -18 38 -29
20z"/>
<path d="M6020 5069 c0 -5 5 -7 10 -4 6 3 10 8 10 11 0 2 -4 4 -10 4 -5 0 -10
-5 -10 -11z"/>
<path d="M6015 5030 c3 -5 8 -10 11 -10 2 0 4 5 4 10 0 6 -5 10 -11 10 -5 0
-7 -4 -4 -10z"/>
<path d="M5964 5005 c-6 -15 2 -35 15 -35 5 0 11 9 14 19 6 23 -21 38 -29 16z"/>
<path d="M4260 4985 c7 -8 16 -15 21 -15 5 0 6 7 3 15 -4 8 -13 15 -21 15 -13
0 -13 -3 -3 -15z"/>
<path d="M3832 4958 c-7 -7 -12 -40 -12 -75 0 -49 4 -65 16 -70 24 -9 33 8 40
74 6 54 4 62 -13 71 -14 8 -23 8 -31 0z"/>
<path d="M6362 4958 c-12 -12 -16 -96 -6 -135 8 -30 42 -30 49 0 4 13 5 50 3
82 -3 62 -19 80 -46 53z"/>
<path d="M5902 4938 c-8 -8 -9 -15 -1 -25 16 -19 29 -16 29 6 0 25 -13 34 -28
19z"/>
<path d="M4266 4921 c-3 -5 3 -11 14 -14 13 -3 20 0 20 9 0 15 -26 19 -34 5z"/>
<path d="M4350 4840 c0 -5 5 -10 10 -10 6 0 10 5 10 10 0 6 -4 10 -10 10 -5 0
-10 -4 -10 -10z"/>
<path d="M5855 4840 c3 -5 10 -10 16 -10 5 0 9 5 9 10 0 6 -7 10 -16 10 -8 0
-12 -4 -9 -10z"/>
<path d="M4350 4799 c0 -5 5 -7 10 -4 6 3 10 8 10 11 0 2 -4 4 -10 4 -5 0 -10
-5 -10 -11z"/>
<path d="M4430 4800 c0 -5 4 -10 9 -10 6 0 13 5 16 10 3 6 -1 10 -9 10 -9 0
-16 -4 -16 -10z"/>
<path d="M5800 4765 c0 -8 5 -15 10 -15 6 0 10 7 10 15 0 8 -4 15 -10 15 -5 0
-10 -7 -10 -15z"/>
<path d="M4430 4760 c0 -5 5 -10 10 -10 6 0 10 5 10 10 0 6 -4 10 -10 10 -5 0
-10 -4 -10 -10z"/>
<path d="M4484 4743 c4 -34 20 -33 24 2 2 17 -1 25 -12 25 -10 0 -14 -8 -12
-27z"/>
<path d="M4535 4720 c-3 -5 -1 -10 4 -10 6 0 11 5 11 10 0 6 -2 10 -4 10 -3 0
-8 -4 -11 -10z"/>
<path d="M5680 4699 c0 -5 5 -7 10 -4 6 3 10 8 10 11 0 2 -4 4 -10 4 -5 0 -10
-5 -10 -11z"/>
<path d="M5626 4685 c-4 -12 -1 -16 11 -13 18 3 21 20 5 26 -5 1 -12 -4 -16
-13z"/>
<path d="M4485 4680 c-3 -5 -1 -10 4 -10 6 0 11 5 11 10 0 6 -2 10 -4 10 -3 0
-8 -4 -11 -10z"/>
<path d="M4520 4680 c0 -5 5 -10 10 -10 6 0 10 5 10 10 0 6 -4 10 -10 10 -5 0
-10 -4 -10 -10z"/>
<path d="M4570 4680 c0 -5 5 -10 11 -10 5 0 7 5 4 10 -3 6 -8 10 -11 10 -2 0
-4 -4 -4 -10z"/>
<path d="M5715 4680 c-3 -5 1 -10 9 -10 9 0 16 5 16 10 0 6 -4 10 -9 10 -6 0
-13 -4 -16 -10z"/>
<path d="M5570 4645 c-10 -13 -9 -15 9 -15 12 0 21 6 21 15 0 8 -4 15 -9 15
-5 0 -14 -7 -21 -15z"/>
<path d="M6362 4651 c-8 -5 -12 -22 -10 -42 2 -26 8 -35 25 -37 17 -3 24 3 29
22 12 50 -10 79 -44 57z"/>
<path d="M4630 4640 c0 -5 5 -10 10 -10 6 0 10 5 10 10 0 6 -4 10 -10 10 -5 0
-10 -4 -10 -10z"/>
<path d="M4660 4601 c0 -12 5 -21 10 -21 6 0 10 6 10 14 0 8 -4 18 -10 21 -5
3 -10 -3 -10 -14z"/>
<path d="M5485 4606 c-11 -8 -14 -15 -7 -20 12 -7 42 3 42 14 0 16 -17 19 -35
6z"/>
<path d="M4625 4600 c3 -5 8 -10 11 -10 2 0 4 5 4 10 0 6 -5 10 -11 10 -5 0
-7 -4 -4 -10z"/>
<path d="M5466 4571 c-4 -5 -2 -12 3 -15 5 -4 12 -2 15 3 4 5 2 12 -3 15 -5 4
-12 2 -15 -3z"/>
<path d="M5525 4560 c3 -5 8 -10 11 -10 2 0 4 5 4 10 0 6 -5 10 -11 10 -5 0
-7 -4 -4 -10z"/>
<path d="M5375 4540 c-3 -5 1 -10 9 -10 9 0 16 5 16 10 0 6 -4 10 -9 10 -6 0
-13 -4 -16 -10z"/>
<path d="M5430 4530 c0 -5 5 -10 11 -10 5 0 7 5 4 10 -3 6 -8 10 -11 10 -2 0
-4 -4 -4 -10z"/>
<path d="M5540 4529 c0 -5 5 -7 10 -4 6 3 10 8 10 11 0 2 -4 4 -10 4 -5 0 -10
-5 -10 -11z"/>
<path d="M4910 4522 c0 -5 9 -17 20 -27 22 -20 26 -14 10 16 -11 19 -30 26
-30 11z"/>
<path d="M4856 4511 c-4 -5 -2 -12 3 -15 5 -4 12 -2 15 3 4 5 2 12 -3 15 -5 4
-12 2 -15 -3z"/>
<path d="M4755 4500 c-3 -5 -1 -10 4 -10 6 0 11 5 11 10 0 6 -2 10 -4 10 -3 0
-8 -4 -11 -10z"/>
<path d="M4810 4500 c0 -5 4 -10 9 -10 6 0 13 5 16 10 3 6 -1 10 -9 10 -9 0
-16 -4 -16 -10z"/>
<path d="M5340 4500 c0 -5 4 -10 9 -10 6 0 13 5 16 10 3 6 -1 10 -9 10 -9 0
-16 -4 -16 -10z"/>
<path d="M5380 4489 c0 -5 5 -7 10 -4 6 3 10 8 10 11 0 2 -4 4 -10 4 -5 0 -10
-5 -10 -11z"/>
<path d="M5220 4460 c0 -5 5 -10 11 -10 5 0 7 5 4 10 -3 6 -8 10 -11 10 -2 0
-4 -4 -4 -10z"/>
<path d="M5280 4460 c0 -5 5 -10 10 -10 6 0 10 5 10 10 0 6 -4 10 -10 10 -5 0
-10 -4 -10 -10z"/>
<path d="M6361 4416 c-7 -9 -11 -40 -9 -78 3 -60 4 -63 28 -63 24 0 25 3 28
67 2 58 0 68 -17 77 -14 8 -22 7 -30 -3z"/>
<path d="M4455 4268 c-2 -7 -6 -57 -8 -111 -3 -84 -1 -99 13 -107 30 -16 40 9
40 106 0 51 -3 99 -6 108 -7 19 -33 21 -39 4z"/>
<path d="M6367 4193 c-4 -3 -7 -415 -7 -915 0 -816 2 -909 16 -915 8 -3 19 -2
25 4 10 10 14 1807 4 1823 -7 11 -28 13 -38 3z"/>
<path d="M3837 4067 c-14 -11 -16 -104 -20 -904 -4 -939 -5 -926 38 -909 13 5
15 112 15 910 0 498 -4 907 -9 910 -4 3 -15 0 -24 -7z"/>
<path d="M6705 1690 c-3 -5 -1 -10 4 -10 6 0 11 5 11 10 0 6 -2 10 -4 10 -3 0
-8 -4 -11 -10z"/>
<path d="M6700 1640 c0 -5 5 -10 10 -10 6 0 10 5 10 10 0 6 -4 10 -10 10 -5 0
-10 -4 -10 -10z"/>
<path d="M3538 1553 c7 -3 16 -2 19 1 4 3 -2 6 -13 5 -11 0 -14 -3 -6 -6z"/>
<path d="M6710 1550 c0 -5 5 -10 11 -10 5 0 7 5 4 10 -3 6 -8 10 -11 10 -2 0
-4 -4 -4 -10z"/>
<path d="M3535 1500 c3 -5 11 -10 16 -10 6 0 7 5 4 10 -3 6 -11 10 -16 10 -6
0 -7 -4 -4 -10z"/>
<path d="M6670 1499 c0 -5 5 -7 10 -4 6 3 10 8 10 11 0 2 -4 4 -10 4 -5 0 -10
-5 -10 -11z"/>
<path d="M6710 1499 c0 -5 5 -7 10 -4 6 3 10 8 10 11 0 2 -4 4 -10 4 -5 0 -10
-5 -10 -11z"/>
<path d="M3720 1450 c0 -5 10 -10 23 -10 18 0 19 2 7 10 -19 13 -30 13 -30 0z"/>
<path d="M6665 1450 c-3 -5 1 -10 9 -10 9 0 16 5 16 10 0 6 -4 10 -9 10 -6 0
-13 -4 -16 -10z"/>
<path d="M3505 1440 c3 -5 8 -10 11 -10 2 0 4 5 4 10 0 6 -5 10 -11 10 -5 0
-7 -4 -4 -10z"/>
<path d="M3540 1440 c0 -5 5 -10 10 -10 6 0 10 5 10 10 0 6 -4 10 -10 10 -5 0
-10 -4 -10 -10z"/>
<path d="M6705 1440 c4 -6 11 -8 16 -5 14 9 11 15 -7 15 -8 0 -12 -5 -9 -10z"/>
<path d="M3725 1390 c3 -5 13 -10 21 -10 8 0 14 5 14 10 0 6 -9 10 -21 10 -11
0 -17 -4 -14 -10z"/>
<path d="M6660 1391 c0 -5 15 -9 34 -8 19 0 33 5 30 9 -7 11 -64 10 -64 -1z"/>
<path d="M3517 1379 c8 -8 16 -8 30 0 16 9 14 10 -11 11 -22 0 -27 -3 -19 -11z"/>
<path d="M6660 1340 c0 -6 11 -10 25 -10 14 0 27 0 30 0 3 0 6 3 8 6 1 4 -13
8 -30 10 -18 2 -33 -1 -33 -6z"/>
<path d="M3510 1330 c0 -5 14 -10 30 -10 17 0 30 5 30 10 0 6 -13 10 -30 10
-16 0 -30 -4 -30 -10z"/>
<path d="M3728 1333 c6 -2 18 -2 25 0 6 3 1 5 -13 5 -14 0 -19 -2 -12 -5z"/>
<path d="M6473 1333 c9 -2 23 -2 30 0 6 3 -1 5 -18 5 -16 0 -22 -2 -12 -5z"/>
<path d="M6305 1290 c-3 -5 -1 -10 4 -10 6 0 11 5 11 10 0 6 -2 10 -4 10 -3 0
-8 -4 -11 -10z"/>
<path d="M3512 1279 c5 -15 48 -18 48 -4 0 6 -11 11 -26 13 -18 3 -25 -1 -22
-9z"/>
<path d="M3730 1280 c0 -5 9 -10 21 -10 11 0 17 5 14 10 -3 6 -13 10 -21 10
-8 0 -14 -4 -14 -10z"/>
<path d="M6660 1279 c0 -5 16 -9 36 -9 19 0 33 4 30 8 -7 12 -66 13 -66 1z"/>
<path d="M6460 1229 c0 -5 9 -9 20 -9 11 0 22 0 25 0 3 0 6 3 8 6 1 4 -10 8
-25 10 -16 1 -28 -2 -28 -7z"/>
<path d="M6650 1223 c0 -8 14 -13 40 -13 22 0 40 4 40 9 0 5 -18 11 -40 13
-28 2 -40 0 -40 -9z"/>
<path d="M3510 1222 c0 -5 14 -9 30 -10 17 0 30 4 30 9 0 5 -13 9 -30 9 -16 0
-30 -4 -30 -8z"/>
<path d="M3735 1220 c3 -5 13 -10 21 -10 8 0 14 5 14 10 0 6 -9 10 -21 10 -11
0 -17 -4 -14 -10z"/>
<path d="M6260 1180 c0 -5 4 -10 9 -10 6 0 13 5 16 10 3 6 -1 10 -9 10 -9 0
-16 -4 -16 -10z"/>
<path d="M6460 1176 c0 -9 7 -16 16 -16 9 0 14 5 12 12 -6 18 -28 21 -28 4z"/>
<path d="M3510 1163 c0 -13 9 -19 30 -20 24 -2 30 2 30 17 0 16 -7 20 -30 20
-22 0 -30 -5 -30 -17z"/>
<path d="M3700 1165 c0 -8 5 -15 10 -15 6 0 10 7 10 15 0 8 -4 15 -10 15 -5 0
-10 -7 -10 -15z"/>
<path d="M3740 1165 c0 -8 7 -15 15 -15 8 0 15 7 15 15 0 8 -7 15 -15 15 -8 0
-15 -7 -15 -15z"/>
<path d="M6500 1172 c0 -5 7 -9 15 -9 8 0 12 4 9 9 -3 4 -9 8 -15 8 -5 0 -9
-4 -9 -8z"/>
<path d="M6652 1168 c6 -17 78 -19 78 -2 0 10 -13 14 -41 14 -27 0 -39 -4 -37
-12z"/>
<path d="M3920 1160 c0 -5 9 -10 20 -10 11 0 20 5 20 10 0 6 -9 10 -20 10 -11
0 -20 -4 -20 -10z"/>
<path d="M3207 4752 c-3 -4 -7 -123 -8 -263 l-2 -254 27 -3 26 -3 -2 263 c-3
235 -5 263 -20 266 -9 2 -19 -1 -21 -6z"/>
<path d="M3123 2203 c9 -2 23 -2 30 0 6 3 -1 5 -18 5 -16 0 -22 -2 -12 -5z"/>
<path d="M3110 2150 c0 -5 9 -10 19 -10 11 0 23 5 26 10 4 6 -5 10 -19 10 -14
0 -26 -4 -26 -10z"/>
<path d="M3115 2080 c-4 -6 5 -10 20 -10 15 0 24 4 20 10 -3 6 -12 10 -20 10
-8 0 -17 -4 -20 -10z"/>
<path d="M3120 2030 c-12 -8 -12 -10 3 -16 9 -3 25 -3 34 0 15 6 15 8 3 16 -8
6 -17 10 -20 10 -3 0 -12 -4 -20 -10z"/>
<path d="M3110 1970 c0 -5 9 -10 20 -10 11 0 23 0 27 -1 4 0 9 4 11 10 2 6
-10 11 -27 11 -17 0 -31 -4 -31 -10z"/>
<path d="M3115 1910 c3 -5 17 -10 31 -10 13 0 24 5 24 10 0 6 -14 10 -31 10
-17 0 -28 -4 -24 -10z"/>
<path d="M3117 1858 c-8 -5 -4 -8 11 -8 12 0 25 0 29 -1 4 0 9 4 11 10 4 11
-32 11 -51 -1z"/>
<path d="M3117 1813 c-15 -14 -6 -23 23 -23 32 0 40 14 14 24 -20 8 -29 8 -37
-1z"/>
<path d="M3110 1750 c0 -5 14 -10 31 -10 17 0 28 4 24 10 -3 6 -17 10 -31 10
-13 0 -24 -4 -24 -10z"/>
<path d="M3112 1699 c2 -6 7 -10 11 -10 4 1 14 1 22 1 8 0 15 5 15 10 0 6 -12
10 -26 10 -14 0 -24 -5 -22 -11z"/>
<path d="M3338 1693 c7 -3 16 -2 19 1 4 3 -2 6 -13 5 -11 0 -14 -3 -6 -6z"/>
<path d="M3113 1648 c2 -7 14 -13 27 -13 13 0 25 6 28 13 2 8 -7 12 -28 12
-21 0 -30 -4 -27 -12z"/>
<path d="M3330 1650 c0 -5 7 -10 15 -10 8 0 15 5 15 10 0 6 -7 10 -15 10 -8 0
-15 -4 -15 -10z"/>
<path d="M3110 1592 c0 -8 9 -12 25 -10 35 4 37 23 3 23 -17 1 -28 -4 -28 -13z"/>
<path d="M3320 1600 c0 -5 5 -10 10 -10 6 0 10 5 10 10 0 6 -4 10 -10 10 -5 0
-10 -4 -10 -10z"/>
<path d="M3300 1550 c0 -5 12 -10 26 -10 14 0 23 4 19 10 -3 6 -15 10 -26 10
-10 0 -19 -4 -19 -10z"/>
<path d="M3110 1540 c0 -5 11 -10 25 -10 14 0 25 5 25 10 0 6 -11 10 -25 10
-14 0 -25 -4 -25 -10z"/>
<path d="M3300 1500 c0 -5 12 -10 26 -10 14 0 23 4 19 10 -3 6 -15 10 -26 10
-10 0 -19 -4 -19 -10z"/>
<path d="M3300 1440 c0 -5 9 -10 19 -10 11 0 23 5 26 10 4 6 -5 10 -19 10 -14
0 -26 -4 -26 -10z"/>
<path d="M3300 1391 c0 -19 18 -21 46 -6 l29 15 -37 0 c-21 0 -38 -4 -38 -9z"/>
<path d="M3290 1335 c0 -11 11 -15 40 -15 29 0 40 4 40 15 0 11 -11 15 -40 15
-29 0 -40 -4 -40 -15z"/>
<path d="M3285 1281 c-7 -12 23 -22 50 -16 11 2 26 4 33 4 7 1 10 6 7 11 -8
13 -82 13 -90 1z"/>
<path d="M3284 1231 c-14 -15 2 -22 44 -19 26 2 46 8 45 13 -3 10 -80 15 -89
6z"/>
<path d="M3282 1163 c3 -14 13 -18 46 -18 38 0 60 14 45 29 -4 3 -26 6 -50 6
-37 0 -44 -3 -41 -17z"/>
<path d="M6890 1690 c0 -5 5 -10 10 -10 6 0 10 5 10 10 0 6 -4 10 -10 10 -5 0
-10 -4 -10 -10z"/>
<path d="M6890 1639 c0 -5 5 -7 10 -4 6 3 10 8 10 11 0 2 -4 4 -10 4 -5 0 -10
-5 -10 -11z"/>
<path d="M6880 1590 c0 -5 7 -10 15 -10 8 0 15 5 15 10 0 6 -7 10 -15 10 -8 0
-15 -4 -15 -10z"/>
<path d="M6870 1540 c0 -5 9 -10 20 -10 11 0 20 5 20 10 0 6 -9 10 -20 10 -11
0 -20 -4 -20 -10z"/>
<path d="M6870 1490 c0 -5 9 -10 20 -10 11 0 20 5 20 10 0 6 -9 10 -20 10 -11
0 -20 -4 -20 -10z"/>
<path d="M6873 1435 c6 -17 37 -18 37 -1 0 9 -8 14 -20 13 -11 -1 -19 -6 -17
-12z"/>
<path d="M6870 1380 c0 -5 7 -10 15 -10 8 0 15 5 15 10 0 6 -7 10 -15 10 -8 0
-15 -4 -15 -10z"/>
<path d="M6915 1380 c3 -5 10 -10 16 -10 5 0 9 5 9 10 0 6 -7 10 -16 10 -8 0
-12 -4 -9 -10z"/>
<path d="M6870 1336 c0 -12 10 -16 35 -16 19 0 35 5 35 10 0 6 -9 10 -19 10
-11 0 -26 3 -35 6 -11 4 -16 1 -16 -10z"/>
<path d="M6870 1274 c0 -11 8 -14 32 -11 45 5 49 27 4 27 -26 0 -36 -4 -36
-16z"/>
<path d="M6855 1220 c3 -5 15 -10 26 -10 10 0 19 5 19 10 0 6 -12 10 -26 10
-14 0 -23 -4 -19 -10z"/>
<path d="M6910 1220 c0 -5 7 -10 15 -10 8 0 15 5 15 10 0 6 -7 10 -15 10 -8 0
-15 -4 -15 -10z"/>
<path d="M7064 2201 c3 -5 17 -8 31 -8 14 0 25 3 25 8 0 5 -14 9 -31 9 -16 0
-28 -4 -25 -9z"/>
<path d="M7080 2150 c-24 -8 -23 -8 8 -9 20 -1 31 3 27 9 -3 6 -7 10 -8 9 -1
-1 -13 -5 -27 -9z"/>
<path d="M7055 2090 c3 -5 17 -10 31 -10 13 0 24 5 24 10 0 6 -14 10 -31 10
-17 0 -28 -4 -24 -10z"/>
<path d="M7050 2030 c0 -5 14 -10 30 -10 17 0 30 5 30 10 0 6 -13 10 -30 10
-16 0 -30 -4 -30 -10z"/>
<path d="M7050 1970 c0 -5 14 -10 30 -10 17 0 30 5 30 10 0 6 -13 10 -30 10
-16 0 -30 -4 -30 -10z"/>
<path d="M7051 1916 c12 -10 59 -15 59 -6 0 5 -14 10 -32 10 -17 0 -29 -2 -27
-4z"/>
<path d="M7065 1854 c13 -9 23 -10 36 -3 28 14 23 19 -17 17 -33 -1 -35 -3
-19 -14z"/>
<path d="M7060 1750 c0 -5 11 -10 25 -10 14 0 25 5 25 10 0 6 -11 10 -25 10
-14 0 -25 -4 -25 -10z"/>
<path d="M7060 1700 c0 -5 14 -10 30 -10 17 0 30 5 30 10 0 6 -13 10 -30 10
-16 0 -30 -4 -30 -10z"/>
<path d="M7053 1648 c5 -17 67 -18 67 -1 0 8 -13 13 -36 13 -24 0 -34 -4 -31
-12z"/>
<path d="M7257 5061 c-17 -6 -17 -8 6 -18 26 -12 37 -8 37 14 0 14 -15 16 -43
4z"/>
<path d="M7260 5008 c0 -8 9 -14 21 -15 12 -1 19 3 16 10 -5 17 -37 21 -37 5z"/>
<path d="M7255 4950 c-4 -6 5 -10 19 -10 14 0 26 5 26 10 0 6 -9 10 -19 10
-11 0 -23 -4 -26 -10z"/>
<path d="M7254 4899 c-5 -9 25 -20 37 -13 5 3 9 9 9 14 0 10 -39 9 -46 -1z"/>
<path d="M7250 4840 c0 -5 11 -10 25 -10 14 0 25 5 25 10 0 6 -11 10 -25 10
-14 0 -25 -4 -25 -10z"/>
<path d="M7255 4780 c3 -5 15 -10 26 -10 10 0 19 5 19 10 0 6 -12 10 -26 10
-14 0 -23 -4 -19 -10z"/>
<path d="M7250 4730 c0 -5 7 -10 15 -10 8 0 18 0 22 -1 4 0 9 4 11 10 2 6 -8
11 -22 11 -14 0 -26 -4 -26 -10z"/>
<path d="M7255 4670 c3 -5 15 -10 26 -10 10 0 19 5 19 10 0 6 -12 10 -26 10
-14 0 -23 -4 -19 -10z"/>
<path d="M7260 4610 c20 -13 40 -13 40 0 0 6 -12 10 -27 10 -22 0 -25 -2 -13
-10z"/>
<path d="M7255 4560 c-3 -4 2 -11 11 -14 22 -8 34 -7 34 3 0 12 -39 21 -45 11z"/>
<path d="M7260 4500 c0 -5 9 -10 20 -10 11 0 20 5 20 10 0 6 -9 10 -20 10 -11
0 -20 -4 -20 -10z"/>
<path d="M7260 4440 c0 -5 9 -10 21 -10 11 0 17 5 14 10 -3 6 -13 10 -21 10
-8 0 -14 -4 -14 -10z"/>
<path d="M7260 4376 c0 -10 9 -16 21 -16 24 0 21 23 -4 28 -10 2 -17 -3 -17
-12z"/>
<path d="M7260 4310 c0 -5 9 -10 20 -10 11 0 20 5 20 10 0 6 -9 10 -20 10 -11
0 -20 -4 -20 -10z"/>
<path d="M7260 4251 c0 -11 31 -24 39 -16 3 3 -1 10 -9 15 -19 12 -30 12 -30
1z"/>
<path d="M7260 4184 c0 -8 9 -14 20 -14 11 0 20 4 20 9 0 5 -9 11 -20 14 -13
3 -20 0 -20 -9z"/>
<path d="M7260 4120 c0 -5 9 -10 20 -10 11 0 20 5 20 10 0 6 -9 10 -20 10 -11
0 -20 -4 -20 -10z"/>
<path d="M7273 4073 c-20 -7 -15 -19 7 -20 11 -1 20 4 20 13 0 14 -6 16 -27 7z"/>
<path d="M7270 4010 c-12 -8 -10 -10 8 -10 13 0 20 4 17 10 -7 12 -6 12 -25 0z"/>
<path d="M7268 3943 c6 -2 18 -2 25 0 6 3 1 5 -13 5 -14 0 -19 -2 -12 -5z"/>
<path d="M7254 3878 c-3 -4 6 -8 20 -8 14 0 26 4 26 9 0 11 -39 10 -46 -1z"/>
<path d="M7271 3821 c-9 -6 -7 -10 8 -14 12 -3 21 -1 21 3 0 14 -15 19 -29 11z"/>
<path d="M7260 3750 c0 -12 28 -21 35 -11 2 5 -4 11 -15 14 -11 3 -20 2 -20
-3z"/>
<path d="M7275 3691 c-6 -11 9 -23 19 -14 9 9 7 23 -3 23 -6 0 -12 -4 -16 -9z"/>
<path d="M7260 3631 c0 -14 18 -23 31 -15 8 4 7 9 -2 15 -18 11 -29 11 -29 0z"/>
<path d="M7265 3140 c-4 -6 3 -10 14 -10 25 0 27 6 6 13 -8 4 -17 2 -20 -3z"/>
<path d="M7285 3030 c-3 -5 -1 -10 4 -10 6 0 11 5 11 10 0 6 -2 10 -4 10 -3 0
-8 -4 -11 -10z"/>
<path d="M7265 2980 c-3 -5 3 -10 14 -10 12 0 21 5 21 10 0 6 -6 10 -14 10 -8
0 -18 -4 -21 -10z"/>
<path d="M7260 2922 c0 -4 9 -8 20 -9 11 -1 20 2 20 8 0 5 -9 9 -20 9 -11 0
-20 -4 -20 -8z"/>
<path d="M7260 2868 c0 -4 9 -8 20 -8 11 0 20 4 20 8 0 4 -9 8 -20 8 -11 0
-20 -4 -20 -8z"/>
<path d="M7260 2814 c0 -8 9 -14 20 -14 11 0 20 4 20 9 0 5 -9 11 -20 14 -13
3 -20 0 -20 -9z"/>
<path d="M7254 2758 c-6 -9 -6 -9 24 -12 12 -2 22 2 22 9 0 12 -39 15 -46 3z"/>
<path d="M7250 2696 c0 -10 10 -14 29 -14 20 1 28 5 24 14 -7 19 -53 18 -53 0z"/>
<path d="M2920 5116 c0 -17 41 -29 54 -16 6 6 -1 13 -18 20 -35 13 -36 13 -36
-4z"/>
<path d="M2920 5056 c0 -15 47 -28 56 -15 5 8 -27 29 -45 29 -6 0 -11 -6 -11
-14z"/>
<path d="M2920 4996 c0 -11 10 -16 32 -16 34 0 29 13 -9 25 -17 5 -23 2 -23
-9z"/>
<path d="M2923 4927 c4 -14 46 -16 50 -2 1 5 -11 11 -26 12 -18 1 -27 -2 -24
-10z"/>
<path d="M2924 4869 c-3 -5 -4 -9 -2 -10 29 -8 58 -7 58 1 0 5 -3 10 -7 11 -5
0 -16 2 -25 4 -10 2 -20 -1 -24 -6z"/>
<path d="M2930 4800 c0 -5 9 -10 19 -10 11 0 23 5 26 10 4 6 -5 10 -19 10 -14
0 -26 -4 -26 -10z"/>
<path d="M2930 4744 c0 -16 9 -18 28 -5 10 6 9 10 -7 14 -14 3 -21 0 -21 -9z"/>
<path d="M2930 4680 c0 -5 7 -10 15 -10 8 0 15 5 15 10 0 6 -7 10 -15 10 -8 0
-15 -4 -15 -10z"/>
<path d="M2930 4616 c0 -9 7 -16 16 -16 9 0 14 5 12 12 -6 18 -28 21 -28 4z"/>
<path d="M2930 4554 c0 -16 9 -18 28 -5 10 6 9 10 -7 14 -14 3 -21 0 -21 -9z"/>
<path d="M2930 4502 c0 -14 11 -21 26 -15 8 3 11 9 8 14 -7 11 -34 12 -34 1z"/>
<path d="M2930 4436 c0 -9 7 -12 20 -9 11 3 17 9 14 14 -8 14 -34 10 -34 -5z"/>
<path d="M2930 4375 c0 -8 8 -11 20 -8 11 3 20 7 20 8 0 1 -9 5 -20 8 -12 3
-20 0 -20 -8z"/>
<path d="M2936 4323 c-12 -12 -5 -23 14 -23 11 0 20 4 20 9 0 11 -26 22 -34
14z"/>
<path d="M2930 4250 c0 -5 9 -10 20 -10 11 0 20 5 20 10 0 6 -9 10 -20 10 -11
0 -20 -4 -20 -10z"/>
<path d="M2930 4183 c0 -8 7 -13 18 -11 9 2 17 7 17 12 0 5 -8 10 -17 12 -10
1 -18 -4 -18 -13z"/>
<path d="M2934 4128 c-4 -5 -3 -12 0 -15 7 -8 36 4 36 15 0 11 -29 11 -36 0z"/>
<path d="M2930 4060 c0 -5 7 -10 15 -10 8 0 15 5 15 10 0 6 -7 10 -15 10 -8 0
-15 -4 -15 -10z"/>
<path d="M2930 3995 c0 -8 7 -15 15 -15 8 0 15 7 15 15 0 8 -7 15 -15 15 -8 0
-15 -7 -15 -15z"/>
<path d="M2930 3935 c0 -8 7 -15 15 -15 8 0 15 7 15 15 0 8 -7 15 -15 15 -8 0
-15 -7 -15 -15z"/>
<path d="M2930 3870 c0 -5 7 -10 15 -10 8 0 15 5 15 10 0 6 -7 10 -15 10 -8 0
-15 -4 -15 -10z"/>
<path d="M2930 3810 c0 -5 9 -10 21 -10 11 0 17 5 14 10 -3 6 -13 10 -21 10
-8 0 -14 -4 -14 -10z"/>
<path d="M2938 3753 c6 -2 18 -2 25 0 6 3 1 5 -13 5 -14 0 -19 -2 -12 -5z"/>
<path d="M2935 3693 c2 -10 4 -22 4 -26 1 -5 6 -5 11 -2 15 9 12 45 -4 45 -8
0 -13 -8 -11 -17z"/>
<path d="M2934 3621 c3 -5 15 -7 26 -4 28 7 25 13 -6 13 -14 0 -23 -4 -20 -9z"/>
<path d="M2935 3040 c-3 -5 -1 -10 4 -10 6 0 11 5 11 10 0 6 -2 10 -4 10 -3 0
-8 -4 -11 -10z"/>
<path d="M2930 2980 c0 -5 5 -10 11 -10 5 0 7 5 4 10 -3 6 -8 10 -11 10 -2 0
-4 -4 -4 -10z"/>
<path d="M2960 2980 c0 -5 5 -10 10 -10 6 0 10 5 10 10 0 6 -4 10 -10 10 -5 0
-10 -4 -10 -10z"/>
<path d="M2925 2920 c-3 -5 -1 -10 4 -10 6 0 11 5 11 10 0 6 -2 10 -4 10 -3 0
-8 -4 -11 -10z"/>
<path d="M2925 2860 c4 -6 11 -8 16 -5 14 9 11 15 -7 15 -8 0 -12 -5 -9 -10z"/>
<path d="M2960 2860 c0 -5 5 -10 10 -10 6 0 10 5 10 10 0 6 -4 10 -10 10 -5 0
-10 -4 -10 -10z"/>
<path d="M2920 2811 c0 -6 5 -13 10 -16 6 -3 10 1 10 9 0 9 -4 16 -10 16 -5 0
-10 -4 -10 -9z"/>
<path d="M2960 2810 c0 -5 5 -10 11 -10 5 0 7 5 4 10 -3 6 -8 10 -11 10 -2 0
-4 -4 -4 -10z"/>
<path d="M2922 2751 c2 -7 7 -12 11 -12 12 1 9 15 -3 20 -7 2 -11 -2 -8 -8z"/>
<path d="M2960 2750 c0 -5 5 -10 11 -10 5 0 7 5 4 10 -3 6 -8 10 -11 10 -2 0
-4 -4 -4 -10z"/>
<path d="M2927 2704 c-15 -15 -6 -24 23 -24 17 0 30 5 30 11 0 6 -6 9 -14 6
-7 -3 -18 -1 -23 4 -5 5 -12 6 -16 3z"/>
<path d="M2922 2639 c5 -15 58 -23 58 -8 0 5 -6 9 -14 9 -8 0 -22 3 -32 7 -12
4 -15 2 -12 -8z"/>
<path d="M2920 2580 c0 -5 14 -10 30 -10 17 0 30 5 30 10 0 6 -13 10 -30 10
-16 0 -30 -4 -30 -10z"/>
<path d="M2924 2531 c7 -11 56 -21 56 -11 0 4 -10 10 -22 14 -32 8 -40 7 -34
-3z"/>
<path d="M2925 2480 c-5 -9 18 -20 41 -20 8 0 14 4 14 9 0 11 -49 21 -55 11z"/>
<path d="M2920 2420 c0 -5 14 -10 30 -10 17 0 30 5 30 10 0 6 -13 10 -30 10
-16 0 -30 -4 -30 -10z"/>
<path d="M2920 2369 c0 -5 14 -9 30 -9 17 0 30 4 30 8 0 5 -13 9 -30 10 -16 0
-30 -4 -30 -9z"/>
<path d="M2920 2321 c0 -13 20 -18 49 -13 23 5 24 6 6 13 -28 11 -55 11 -55 0z"/>
<path d="M2920 2265 c0 -10 11 -15 35 -15 39 0 47 14 13 24 -36 9 -48 7 -48
-9z"/>
<path d="M2920 2210 c0 -5 16 -10 35 -10 19 0 35 5 35 10 0 6 -16 10 -35 10
-19 0 -35 -4 -35 -10z"/>
<path d="M2922 2159 c2 -6 7 -10 11 -10 4 1 18 1 32 1 14 0 25 5 25 10 0 6
-16 10 -36 10 -21 0 -34 -4 -32 -11z"/>
<path d="M2920 1960 c0 -5 16 -10 35 -10 19 0 35 5 35 10 0 6 -16 10 -35 10
-19 0 -35 -4 -35 -10z"/>
<path d="M4203 3414 c-8 -20 8 -36 26 -25 15 10 8 41 -9 41 -6 0 -13 -7 -17
-16z"/>
<path d="M4137 3373 c-4 -3 -7 -17 -7 -30 0 -16 6 -23 20 -23 20 0 25 15 14
44 -7 17 -16 20 -27 9z"/>
<path d="M4060 3355 c-10 -13 -9 -15 9 -15 11 0 21 4 21 9 0 18 -18 21 -30 6z"/>
<path d="M4205 3351 c-7 -12 12 -24 25 -16 11 7 4 25 -10 25 -5 0 -11 -4 -15
-9z"/>
<path d="M4055 3300 c-3 -5 -4 -10 -1 -10 2 0 11 -3 20 -6 11 -4 16 -1 16 10
0 18 -25 22 -35 6z"/>
<path d="M4137 3304 c-14 -14 -7 -35 11 -32 9 2 17 10 17 17 0 16 -18 25 -28
15z"/>
<path d="M4065 3240 c3 -5 10 -10 16 -10 5 0 9 5 9 10 0 6 -7 10 -16 10 -8 0
-12 -4 -9 -10z"/>
<path d="M4140 3235 c0 -8 5 -15 10 -15 6 0 10 7 10 15 0 8 -4 15 -10 15 -5 0
-10 -7 -10 -15z"/>
<path d="M4205 3190 c-3 -5 -1 -10 4 -10 6 0 11 5 11 10 0 6 -2 10 -4 10 -3 0
-8 -4 -11 -10z"/>
<path d="M5808 3499 c-2 -22 0 -43 4 -45 4 -3 8 15 8 40 0 57 -7 60 -12 5z"/>
<path d="M5896 1982 c-8 -13 -9 -522 -2 -530 4 -3 15 -1 24 4 15 10 17 39 20
273 2 253 2 261 -17 261 -11 0 -22 -4 -25 -8z"/>
<path d="M5965 3529 c-9 -14 -2 -20 14 -10 8 6 9 11 3 15 -6 3 -14 1 -17 -5z"/>
<path d="M6020 3524 c0 -8 5 -12 10 -9 6 3 10 10 10 16 0 5 -4 9 -10 9 -5 0
-10 -7 -10 -16z"/>
<path d="M6130 3524 c0 -9 7 -14 17 -12 25 5 28 28 4 28 -12 0 -21 -6 -21 -16z"/>
<path d="M5970 3490 c0 -5 5 -10 10 -10 6 0 10 5 10 10 0 6 -4 10 -10 10 -5 0
-10 -4 -10 -10z"/>
<path d="M6026 3491 c-4 -7 -5 -15 -2 -18 9 -9 19 4 14 18 -4 11 -6 11 -12 0z"/>
<path d="M6080 3485 c0 -8 5 -15 10 -15 6 0 10 7 10 15 0 8 -4 15 -10 15 -5 0
-10 -7 -10 -15z"/>
<path d="M6137 3494 c-8 -8 1 -24 14 -24 5 0 9 7 9 15 0 15 -12 20 -23 9z"/>
<path d="M6075 3438 c1 -13 6 -22 11 -20 13 3 11 35 -2 39 -6 2 -10 -7 -9 -19z"/>
<path d="M6140 3439 c0 -5 5 -7 10 -4 6 3 10 8 10 11 0 2 -4 4 -10 4 -5 0 -10
-5 -10 -11z"/>
<path d="M4387 3530 c-7 -28 1 -46 14 -33 6 6 6 19 1 33 l-9 24 -6 -24z"/>
<path d="M4393 3473 c-18 -7 -16 -23 2 -23 8 0 15 7 15 15 0 8 -1 15 -2 14 -2
0 -9 -3 -15 -6z"/>
<path d="M4190 1731 c-16 -31 -13 -146 5 -161 23 -19 33 -4 40 63 10 90 -17
149 -45 98z"/>
<path d="M4550 3540 c0 -5 5 -10 10 -10 6 0 10 5 10 10 0 6 -4 10 -10 10 -5 0
-10 -4 -10 -10z"/>
<path d="M4550 3500 c0 -5 5 -10 10 -10 6 0 10 5 10 10 0 6 -4 10 -10 10 -5 0
-10 -4 -10 -10z"/>
<path d="M4555 3460 c4 -6 11 -8 16 -5 14 9 11 15 -7 15 -8 0 -12 -5 -9 -10z"/>
<path d="M4680 3550 c0 -5 7 -10 16 -10 8 0 12 5 9 10 -3 6 -10 10 -16 10 -5
0 -9 -4 -9 -10z"/>
<path d="M4780 3540 c0 -5 4 -10 9 -10 6 0 13 5 16 10 3 6 -1 10 -9 10 -9 0
-16 -4 -16 -10z"/>
<path d="M4685 3510 c3 -5 10 -10 16 -10 5 0 9 5 9 10 0 6 -7 10 -16 10 -8 0
-12 -4 -9 -10z"/>
<path d="M4780 3512 c0 -5 7 -9 15 -9 8 0 12 4 9 9 -3 4 -9 8 -15 8 -5 0 -9
-4 -9 -8z"/>
<path d="M4780 3470 c0 -5 5 -10 10 -10 6 0 10 5 10 10 0 6 -4 10 -10 10 -5 0
-10 -4 -10 -10z"/>
<path d="M4926 3531 c-4 -7 -5 -15 -2 -18 9 -9 19 4 14 18 -4 11 -6 11 -12 0z"/>
<path d="M5076 3532 c-3 -6 -1 -14 5 -17 15 -10 25 3 12 16 -7 7 -13 7 -17 1z"/>
<path d="M4970 3520 c0 -5 5 -10 10 -10 6 0 10 5 10 10 0 6 -4 10 -10 10 -5 0
-10 -4 -10 -10z"/>
<path d="M5125 3520 c3 -5 8 -10 11 -10 2 0 4 5 4 10 0 6 -5 10 -11 10 -5 0
-7 -4 -4 -10z"/>
<path d="M5125 3481 c-3 -5 -1 -12 5 -16 5 -3 10 1 10 9 0 18 -6 21 -15 7z"/>
<path d="M4970 3470 c0 -5 5 -10 10 -10 6 0 10 5 10 10 0 6 -4 10 -10 10 -5 0
-10 -4 -10 -10z"/>
<path d="M5266 3531 c-4 -7 -5 -15 -2 -18 9 -9 19 4 14 18 -4 11 -6 11 -12 0z"/>
<path d="M5360 3525 c0 -8 5 -15 10 -15 6 0 10 7 10 15 0 8 -4 15 -10 15 -5 0
-10 -7 -10 -15z"/>
<path d="M5310 3520 c0 -5 5 -10 10 -10 6 0 10 5 10 10 0 6 -4 10 -10 10 -5 0
-10 -4 -10 -10z"/>
<path d="M5310 3469 c0 -5 5 -7 10 -4 6 3 10 8 10 11 0 2 -4 4 -10 4 -5 0 -10
-5 -10 -11z"/>
<path d="M5502 3309 c2 -6 8 -10 13 -10 5 0 11 4 13 10 2 6 -4 11 -13 11 -9 0
-15 -5 -13 -11z"/>
<path d="M5565 3280 c-8 -14 3 -30 21 -30 8 0 14 9 14 20 0 21 -24 28 -35 10z"/>
<path d="M5640 3270 c0 -11 7 -20 15 -20 8 0 15 9 15 20 0 11 -7 20 -15 20 -8
0 -15 -9 -15 -20z"/>
<path d="M5500 3260 c0 -5 4 -10 9 -10 6 0 13 5 16 10 3 6 -1 10 -9 10 -9 0
-16 -4 -16 -10z"/>
<path d="M5502 3221 c4 -13 18 -16 19 -4 0 4 -5 9 -11 12 -7 2 -11 -2 -8 -8z"/>
<path d="M5562 3218 c7 -19 38 -22 38 -4 0 10 -9 16 -21 16 -12 0 -19 -5 -17
-12z"/>
<path d="M5640 3215 c0 -8 7 -15 15 -15 8 0 15 7 15 15 0 8 -7 15 -15 15 -8 0
-15 -7 -15 -15z"/>
<path d="M5572 3181 c-10 -6 -10 -10 2 -20 10 -9 16 -9 21 -1 10 16 -7 31 -23
21z"/>
<path d="M5647 3183 c-4 -3 -7 -12 -7 -20 0 -15 26 -18 34 -4 7 11 -18 33 -27
24z"/>
<path d="M5505 3170 c3 -5 8 -10 11 -10 2 0 4 5 4 10 0 6 -5 10 -11 10 -5 0
-7 -4 -4 -10z"/>
<path d="M5576 3131 c-4 -5 -2 -12 3 -15 5 -4 12 -2 15 3 4 5 2 12 -3 15 -5 4
-12 2 -15 -3z"/>
<path d="M5505 3120 c3 -5 8 -10 11 -10 2 0 4 5 4 10 0 6 -5 10 -11 10 -5 0
-7 -4 -4 -10z"/>
<path d="M5645 3090 c4 -6 11 -8 16 -5 14 9 11 15 -7 15 -8 0 -12 -5 -9 -10z"/>
<path d="M5600 3009 c0 -5 5 -7 10 -4 6 3 10 8 10 11 0 2 -4 4 -10 4 -5 0 -10
-5 -10 -11z"/>
<path d="M7826 3031 c-4 -7 -5 -15 -2 -18 9 -9 19 4 14 18 -4 11 -6 11 -12 0z"/>
</g>
</svg>
